<?xml version="1.0" standalone="no"?>
<!DOCTYPE svg PUBLIC "-//W3C//DTD SVG 20010904//EN"
 "http://www.w3.org/TR/2001/REC-SVG-20010904/DTD/svg10.dtd">
<svg version="1.0" xmlns="http://www.w3.org/2000/svg"
 width="300.000000pt" height="300.000000pt" viewBox="0 0 300.000000 300.000000"
 preserveAspectRatio="xMidYMid meet">
<g transform="translate(0.000000,300.000000) scale(0.050000,-0.050000)"
fill="#000000" stroke="none">
<path d="M2540 5709 c-2166 -342 -3060 -2997 -1541 -4576 1543 -1604 4267
-772 4641 1418 314 1835 -1269 3448 -3100 3158z m852 -200 c2010 -350 2801
-2839 1359 -4277 -1388 -1385 -3761 -737 -4241 1157 -450 1773 1084 3433 2882
3120z"/>
<path d="M4595 4216 c-4 -14 48 -79 117 -145 182 -176 195 -303 34 -352 -165
-49 -1015 -40 -1287 14 -50 10 -59 6 -59 -28 0 -33 18 -43 91 -54 l90 -14 -61
-77 c-538 -680 438 -1525 1034 -894 229 242 249 717 38 893 -49 40 -38 61 33
62 234 3 365 157 283 330 -69 145 -290 332 -313 265z m-482 -609 l349 -13 68
-80 c197 -230 166 -633 -65 -836 -489 -429 -1233 115 -962 704 60 129 187 266
231 249 16 -6 187 -17 379 -24z"/>
<path d="M3906 3270 c-67 -67 -70 -77 -61 -174 29 -301 455 -287 455 14 0 214
-242 312 -394 160z"/>
<path d="M2320 4184 c0 -21 44 -65 105 -106 446 -300 177 -447 -900 -490 -318
-13 -345 -17 -345 -51 0 -30 15 -37 80 -37 44 0 80 -3 80 -7 0 -5 -20 -52 -44
-105 -266 -586 451 -1187 1001 -840 331 209 433 776 181 1004 -46 41 -49 68
-7 68 124 0 245 141 220 256 -31 140 -371 422 -371 308z m75 -649 c362 -385
19 -1058 -515 -1010 -434 40 -707 571 -473 919 l44 66 300 14 c164 8 349 22
409 33 169 28 190 26 235 -22z"/>
<path d="M1798 3310 c-100 -54 -140 -189 -88 -298 82 -172 336 -175 417 -5
101 211 -122 416 -329 303z"/>
<path d="M3620 2252 c0 -53 70 -152 107 -152 26 0 34 10 25 32 -7 17 -12 40
-12 50 0 24 -75 98 -100 98 -11 0 -20 -13 -20 -28z"/>
<path d="M2730 2191 c-88 -15 -198 -33 -245 -41 -58 -11 -85 -8 -85 7 0 47
-55 20 -117 -56 -34 -43 -63 -88 -63 -100 0 -36 77 -23 99 17 11 20 40 37 65
37 25 1 119 16 207 34 274 56 795 71 968 28 42 -10 49 55 7 74 -65 29 -665 29
-836 0z"/>
<path d="M3360 1999 c-114 -88 -491 -126 -675 -68 -60 18 -57 -13 9 -92 161
-191 587 -154 696 61 68 134 58 167 -30 99z"/>
</g>
</svg>
